<svg id="Capa_1" enable-background="new 0 0 512 512" height="512" viewBox="0 0 512 512" width="512" xmlns="http://www.w3.org/2000/svg" xmlns:xlink="http://www.w3.org/1999/xlink"><linearGradient id="SVGID_1_" gradientUnits="userSpaceOnUse" x1="256" x2="256" y1="481" y2="31"><stop offset="0" stop-color="#fd5900"/><stop offset="1" stop-color="#ffde00"/></linearGradient><linearGradient id="SVGID_2_" gradientUnits="userSpaceOnUse" x1="256" x2="256" y1="391" y2="121"><stop offset="0" stop-color="#ffe59a"/><stop offset="1" stop-color="#ffffd5"/></linearGradient><g id="Notification_2_"><g><g><path d="m287 31h-62c-124.072 0-225 100.928-225 225 0 55.093 19.658 107.139 55.664 148.154l-51.27 51.24c-4.277 4.292-5.566 10.737-3.252 16.348 2.315 5.596 7.794 9.258 13.858 9.258h272c124.072 0 225-100.928 225-225s-100.928-225-225-225z" fill="url(#SVGID_1_)"/></g></g><g><g><path d="m361 331c-8.262 0-15-6.724-15-15v-75c0-44.493-32.523-81.292-75-88.484v-16.516c0-8.291-6.709-15-15-15s-15 6.709-15 15v16.516c-42.477 7.192-75 43.991-75 88.484v75c0 8.276-6.738 15-15 15-8.291 0-15 6.709-15 15s6.709 15 15 15h90v15c0 8.291 6.709 15 15 15s15-6.709 15-15v-15h90c8.291 0 15-6.709 15-15s-6.709-15-15-15z" fill="url(#SVGID_2_)"/></g></g></g></svg>